<svg xmlns="http://www.w3.org/2000/svg" viewBox="0 0 500 550">
  <path 
    d="M283,209 C283,209 285,190 285,185 C285,180 291,179 290,175 C289,171 285,165 285,160 C285,155 280,149 280,145 C280,141 278,135 275,130 C272,125 270,125 265,120 C260,115 257,103 255,100 C253,97 248,90 245,85 C242,80 235,82 230,80 C225,78 218,72 215,70 C212,68 209,65 205,60 C201,55 198,50 195,45 C192,40 190,35 185,30 C180,25 177,15 175,10 C173,5 171,0 168,0 C165,0 163,8 160,10 C157,12 154,12 150,15 C146,18 141,25 140,30 C139,35 135,38 135,45 C135,52 139,63 140,70 C141,77 138,84 140,90 C142,96 148,106 150,110 C152,114 155,120 155,125 C155,130 161,142 163,145 C165,148 175,153 175,160 C175,167 170,175 170,180 C170,185 170,192 167,197 C164,202 155,209 150,215 C145,221 140,227 135,230 C130,233 123,236 120,240 C117,244 116,249 115,255 C114,261 113,276 110,285 C107,294 102,305 100,310 C98,315 95,322 95,330 C95,338 95,348 95,355 C95,362 96,368 100,375 C104,382 112,390 115,395 C118,400 120,406 125,410 C130,414 133,419 140,420 C147,421 156,418 160,415 C164,412 166,408 170,405 C174,402 177,398 180,395 C183,392 183,385 187,380 C191,375 196,370 203,365 C210,360 219,354 225,351 C231,348 238,347 246,345 C254,343 260,341 267,340 C274,339 280,339 285,338 C290,337 295,335 300,332 C305,329 309,325 313,320 C317,315 318,312 320,307 C322,302 321,297 323,293 C325,289 329,282 329,280 C329,278 327,273 325,270 C323,267 321,265 315,260 C309,255 304,250 300,247 C296,244 290,240 285,235 C280,230 281,221 281,215 C281,209 283,209 283,209 Z"
    fill="white"
    stroke="black"
    strokeWidth="2"
  />
  
  <!-- Location Marker in Maharashtra area -->
  <circle cx="174" cy="294" r="8" fill="#e53e3e" />
  <circle cx="174" cy="294" r="3" fill="#ffffff" />
</svg>