<svg xmlns="http://www.w3.org/2000/svg" viewBox="0 0 400 250">
  <filter id="shadow" x="-20%" y="-20%" width="140%" height="140%">
    <feDropShadow dx="2" dy="2" stdDeviation="3" flood-opacity="0.3"/>
  </filter>
  <path 
    d="M20,125 C25,130 35,135 45,137 C55,139 65,140 75,142 C85,144 95,146 105,148 C115,150 120,152 130,153 C140,154 150,154 160,154 C170,154 180,153 190,151 C200,149 210,147 220,144 C230,141 240,138 250,134 C260,130 270,126 280,120 C290,114 300,108 310,100 C320,92 330,84 335,75 C340,66 340,56 345,45 C350,34 353,22 350,15 C347,8 337,5 325,5 C313,5 298,8 285,15 C272,22 260,32 250,40 C240,48 232,55 225,60 C218,65 212,68 205,70 C198,72 190,73 180,75 C170,77 160,79 150,82 C140,85 130,88 120,92 C110,96 100,100 90,105 C80,110 70,115 60,120 C50,125 40,130 30,133 C20,136 10,137 5,130 C0,123 0,108 5,100 C10,92 20,91 25,90 C30,89 30,88 35,88 C40,88 45,88 50,90 C55,92 60,95 65,95 C70,95 75,92 80,90 C85,88 90,86 95,85 C100,84 105,84 110,85 C115,86 120,88 125,90 C130,92 135,94 140,95 C145,96 150,96 155,95 C160,94 165,92 170,91 C175,90 180,89 185,88 C190,87 195,86 200,85 C205,84 210,83 215,82 C220,81 225,80 230,78 C235,76 240,74 245,70 C250,66 255,61 260,55 C265,49 270,42 275,35 C280,28 285,21 290,15 C295,9 300,4 305,2 C310,0 315,1 320,2 C325,3 330,5 335,10 C340,15 345,22 350,30 C355,38 360,47 365,55 C370,63 375,70 380,75 C385,80 390,83 392,87 C394,91 393,97 390,105 C387,113 382,123 375,130 C368,137 358,141 350,145 C342,149 335,153 330,155 C325,157 322,158 320,160 C318,162 317,165 315,170 C313,175 310,182 305,190 C300,198 293,207 285,215 C277,223 268,230 260,235 C252,240 245,243 240,245 C235,247 232,248 230,248 C228,248 227,248 225,245 C223,242 220,237 215,230 C210,223 203,215 195,208 C187,201 178,195 170,190 C162,185 155,180 150,177 C145,174 142,172 140,170 C138,168 137,166 135,162 C133,158 130,152 125,147 C120,142 113,138 105,135 C97,132 88,130 80,128 C72,126 65,125 60,123 C55,121 52,119 50,115 C48,111 47,105 45,100 C43,95 40,90 35,88 C30,86 22,86 15,88 C8,90 2,94 2,100 C2,106 9,114 15,120"
    fill="#f0f0f0"
    stroke="#dddddd"
    stroke-width="1"
    filter="url(#shadow)"
  />
</svg>